<svg width="1222" height="677" viewBox="0 0 1222 677" xmlns="http://www.w3.org/2000/svg"><rect width="100%" height="100%" fill="#1a1a1a"></rect><g transform="translate(544.8113946933698, 50) matrix(0.8660254037844387, 0.49999999999999994, -0.8660254037844387, 0.49999999999999994, 0, 0)"><g transform="translate(0, 0)"><polygon points="220,4 244,4 244,566 220,566" fill="#2d2d2d"></polygon><polygon points="0,4 220,4 244,4 24,4" fill="#5d5d5d"></polygon><rect x="17" y="21" width="186" height="528" fill="#2d2d2d"></rect><rect x="0" y="4" width="220" height="17" fill="#404040"></rect><rect x="0" y="549" width="220" height="17" fill="#404040"></rect><rect x="0" y="4" width="17" height="562" fill="#404040"></rect><rect x="203" y="4" width="17" height="562" fill="#404040"></rect><polygon points="201,176 213,176 213,196 201,196" fill="#2772a4"></polygon><polygon points="19,176 201,176 213,176 31,176" fill="#52a7e0"></polygon><rect x="19" y="176" width="182" height="20" fill="#3498db" rx="2"></rect><polygon points="201,198 213,198 213,218 201,218" fill="#2772a4"></polygon><polygon points="19,198 201,198 213,198 31,198" fill="#52a7e0"></polygon><rect x="19" y="198" width="182" height="20" fill="#3498db" rx="2"></rect><polygon points="201,220 213,220 213,240 201,240" fill="#2772a4"></polygon><polygon points="19,220 201,220 213,220 31,220" fill="#52a7e0"></polygon><rect x="19" y="220" width="182" height="20" fill="#3498db" rx="2"></rect><polygon points="201,242 213,242 213,262 201,262" fill="#2772a4"></polygon><polygon points="19,242 201,242 213,242 31,242" fill="#52a7e0"></polygon><rect x="19" y="242" width="182" height="20" fill="#3498db" rx="2"></rect><polygon points="201,264 213,264 213,284 201,284" fill="#5f696a"></polygon><polygon points="19,264 201,264 213,264 31,264" fill="#929d9e"></polygon><rect x="19" y="264" width="182" height="20" fill="#7f8c8d" rx="2"></rect><polygon points="201,286 225,286 225,306 201,306" fill="#1d8348"></polygon><polygon points="19,286 201,286 225,286 43,286" fill="#47ba78"></polygon><rect x="19" y="286" width="182" height="20" fill="#27ae60" rx="2"></rect><polygon points="201,308 225,308 225,328 201,328" fill="#1d8348"></polygon><polygon points="19,308 201,308 225,308 43,308" fill="#47ba78"></polygon><rect x="19" y="308" width="182" height="20" fill="#27ae60" rx="2"></rect><polygon points="201,330 225,330 225,372 201,372" fill="#1d8348"></polygon><polygon points="19,330 201,330 225,330 43,330" fill="#47ba78"></polygon><rect x="19" y="330" width="182" height="42" fill="#27ae60" rx="2"></rect><polygon points="201,374 213,374 213,394 201,394" fill="#5f696a"></polygon><polygon points="19,374 201,374 213,374 31,374" fill="#929d9e"></polygon><rect x="19" y="374" width="182" height="20" fill="#7f8c8d" rx="2"></rect><polygon points="201,396 225,396 225,416 201,416" fill="#744389"></polygon><polygon points="19,396 201,396 225,396 43,396" fill="#aa72c1"></polygon><rect x="19" y="396" width="182" height="20" fill="#9b59b6" rx="2"></rect><polygon points="201,418 225,418 225,460 201,460" fill="#744389"></polygon><polygon points="19,418 201,418 225,418 43,418" fill="#aa72c1"></polygon><rect x="19" y="418" width="182" height="42" fill="#9b59b6" rx="2"></rect><polygon points="201,462 225,462 225,504 201,504" fill="#ad392d"></polygon><polygon points="19,462 201,462 225,462 43,462" fill="#eb6759"></polygon><rect x="19" y="462" width="182" height="42" fill="#e74c3c" rx="2"></rect><polygon points="201,506 225,506 225,548 201,548" fill="#ad392d"></polygon><polygon points="19,506 201,506 225,506 43,506" fill="#eb6759"></polygon><rect x="19" y="506" width="182" height="42" fill="#e74c3c" rx="2"></rect><text x="110" y="-5" fill="#ffffff" font-size="11" font-family="system-ui, sans-serif" text-anchor="middle" font-weight="bold">FRONT</text></g><g transform="translate(280, 0)"><polygon points="220,4 244,4 244,566 220,566" fill="#2d2d2d"></polygon><polygon points="0,4 220,4 244,4 24,4" fill="#5d5d5d"></polygon><rect x="17" y="21" width="186" height="528" fill="#2d2d2d"></rect><rect x="0" y="4" width="220" height="17" fill="#404040"></rect><rect x="0" y="549" width="220" height="17" fill="#404040"></rect><rect x="0" y="4" width="17" height="562" fill="#404040"></rect><rect x="203" y="4" width="17" height="562" fill="#404040"></rect><polygon points="201,176 213,176 213,196 201,196" fill="#2772a4"></polygon><polygon points="19,176 201,176 213,176 31,176" fill="#52a7e0"></polygon><rect x="19" y="176" width="182" height="20" fill="#3498db" rx="2"></rect><polygon points="201,198 213,198 213,218 201,218" fill="#2772a4"></polygon><polygon points="19,198 201,198 213,198 31,198" fill="#52a7e0"></polygon><rect x="19" y="198" width="182" height="20" fill="#3498db" rx="2"></rect><polygon points="201,220 213,220 213,240 201,240" fill="#2772a4"></polygon><polygon points="19,220 201,220 213,220 31,220" fill="#52a7e0"></polygon><rect x="19" y="220" width="182" height="20" fill="#3498db" rx="2"></rect><polygon points="201,242 213,242 213,262 201,262" fill="#2772a4"></polygon><polygon points="19,242 201,242 213,242 31,242" fill="#52a7e0"></polygon><rect x="19" y="242" width="182" height="20" fill="#3498db" rx="2"></rect><polygon points="201,264 213,264 213,284 201,284" fill="#5f696a"></polygon><polygon points="19,264 201,264 213,264 31,264" fill="#929d9e"></polygon><rect x="19" y="264" width="182" height="20" fill="#7f8c8d" rx="2"></rect><polygon points="201,286 225,286 225,306 201,306" fill="#1d8348"></polygon><polygon points="19,286 201,286 225,286 43,286" fill="#47ba78"></polygon><rect x="19" y="286" width="182" height="20" fill="#27ae60" rx="2"></rect><polygon points="201,308 225,308 225,328 201,328" fill="#1d8348"></polygon><polygon points="19,308 201,308 225,308 43,308" fill="#47ba78"></polygon><rect x="19" y="308" width="182" height="20" fill="#27ae60" rx="2"></rect><polygon points="201,330 225,330 225,372 201,372" fill="#1d8348"></polygon><polygon points="19,330 201,330 225,330 43,330" fill="#47ba78"></polygon><rect x="19" y="330" width="182" height="42" fill="#27ae60" rx="2"></rect><polygon points="201,374 213,374 213,394 201,394" fill="#5f696a"></polygon><polygon points="19,374 201,374 213,374 31,374" fill="#929d9e"></polygon><rect x="19" y="374" width="182" height="20" fill="#7f8c8d" rx="2"></rect><polygon points="201,396 225,396 225,416 201,416" fill="#744389"></polygon><polygon points="19,396 201,396 225,396 43,396" fill="#aa72c1"></polygon><rect x="19" y="396" width="182" height="20" fill="#9b59b6" rx="2"></rect><polygon points="201,418 225,418 225,460 201,460" fill="#744389"></polygon><polygon points="19,418 201,418 225,418 43,418" fill="#aa72c1"></polygon><rect x="19" y="418" width="182" height="42" fill="#9b59b6" rx="2"></rect><polygon points="201,462 225,462 225,504 201,504" fill="#ad392d"></polygon><polygon points="19,462 201,462 225,462 43,462" fill="#eb6759"></polygon><rect x="19" y="462" width="182" height="42" fill="#e74c3c" rx="2"></rect><polygon points="201,506 225,506 225,548 201,548" fill="#ad392d"></polygon><polygon points="19,506 201,506 225,506 43,506" fill="#eb6759"></polygon><rect x="19" y="506" width="182" height="42" fill="#e74c3c" rx="2"></rect><text x="110" y="-5" fill="#ffffff" font-size="11" font-family="system-ui, sans-serif" text-anchor="middle" font-weight="bold">REAR</text></g></g><g transform="translate(1021.8240965855892, 20)"><text x="0" y="15" fill="#ffffff" font-size="13" font-family="system-ui, sans-serif" font-weight="bold">Devices</text><rect x="0" y="35" width="16" height="16" fill="#e74c3c" rx="2"></rect><text x="22" y="47" fill="#ffffff" font-size="11" font-family="system-ui, sans-serif">CyberPower OR1500</text><text x="22" y="59" fill="#ffffff" font-size="9" font-family="system-ui, sans-serif" opacity="0.6">2U · power</text><rect x="0" y="67" width="16" height="16" fill="#e74c3c" rx="2"></rect><text x="22" y="79" fill="#ffffff" font-size="11" font-family="system-ui, sans-serif">APC SMT1500RM</text><text x="22" y="91" fill="#ffffff" font-size="9" font-family="system-ui, sans-serif" opacity="0.6">2U · power</text><rect x="0" y="99" width="16" height="16" fill="#9b59b6" rx="2"></rect><text x="22" y="111" fill="#ffffff" font-size="11" font-family="system-ui, sans-serif">RS1221+</text><text x="22" y="123" fill="#ffffff" font-size="9" font-family="system-ui, sans-serif" opacity="0.6">2U · storage</text><rect x="0" y="131" width="16" height="16" fill="#9b59b6" rx="2"></rect><text x="22" y="143" fill="#ffffff" font-size="11" font-family="system-ui, sans-serif">RS820+</text><text x="22" y="155" fill="#ffffff" font-size="9" font-family="system-ui, sans-serif" opacity="0.6">1U · storage</text><rect x="0" y="163" width="16" height="16" fill="#7f8c8d" rx="2"></rect><text x="8" y="175" fill="#fff" font-size="8" font-family="system-ui, sans-serif" text-anchor="middle" font-weight="bold">½</text><text x="22" y="175" fill="#ffffff" font-size="11" font-family="system-ui, sans-serif">1U Blank Panel</text><text x="22" y="187" fill="#ffffff" font-size="9" font-family="system-ui, sans-serif" opacity="0.6">1U · blank</text><rect x="0" y="195" width="16" height="16" fill="#27ae60" rx="2"></rect><text x="22" y="207" fill="#ffffff" font-size="11" font-family="system-ui, sans-serif">PowerEdge R730</text><text x="22" y="219" fill="#ffffff" font-size="9" font-family="system-ui, sans-serif" opacity="0.6">2U · server</text><rect x="0" y="227" width="16" height="16" fill="#27ae60" rx="2"></rect><text x="22" y="239" fill="#ffffff" font-size="11" font-family="system-ui, sans-serif">PowerEdge R640</text><text x="22" y="251" fill="#ffffff" font-size="9" font-family="system-ui, sans-serif" opacity="0.6">1U · server</text><rect x="0" y="259" width="16" height="16" fill="#3498db" rx="2"></rect><text x="8" y="271" fill="#fff" font-size="8" font-family="system-ui, sans-serif" text-anchor="middle" font-weight="bold">½</text><text x="22" y="271" fill="#ffffff" font-size="11" font-family="system-ui, sans-serif">24-Port Patch Panel</text><text x="22" y="283" fill="#ffffff" font-size="9" font-family="system-ui, sans-serif" opacity="0.6">1U · network</text><rect x="0" y="291" width="16" height="16" fill="#3498db" rx="2"></rect><text x="8" y="303" fill="#fff" font-size="8" font-family="system-ui, sans-serif" text-anchor="middle" font-weight="bold">½</text><text x="22" y="303" fill="#ffffff" font-size="11" font-family="system-ui, sans-serif">USW-Pro-48</text><text x="22" y="315" fill="#ffffff" font-size="9" font-family="system-ui, sans-serif" opacity="0.6">1U · network</text><rect x="0" y="323" width="16" height="16" fill="#3498db" rx="2"></rect><text x="8" y="335" fill="#fff" font-size="8" font-family="system-ui, sans-serif" text-anchor="middle" font-weight="bold">½</text><text x="22" y="335" fill="#ffffff" font-size="11" font-family="system-ui, sans-serif">UDM Pro</text><text x="22" y="347" fill="#ffffff" font-size="9" font-family="system-ui, sans-serif" opacity="0.6">1U · network</text></g><text x="610.9120482927947" y="661.9999999999999" fill="#ffffff" font-size="12" font-family="system-ui, sans-serif" text-anchor="middle" opacity="0.6">Isometric Export POC - Rackula</text></svg>