<svg xmlns="http://www.w3.org/2000/svg" width="274" height="543" viewBox="0 0 274 543"><rect width="100%" height="100%" fill="#282a36"></rect><g transform="translate(80, 54) matrix(0.8660254037844387, 0.49999999999999994, -0.8660254037844387, 0.49999999999999994, 0, 0)"><g><rect x="0" y="0" width="200" height="240" fill="#6272a4" stroke="#44475a" stroke-width="2"></rect><polygon points="200,0 224,-13.856406460551016 224,226.14359353944897 200,240" fill="#48557c" stroke="#44475a" stroke-width="1"></polygon><polygon points="0,0 24,-13.856406460551016 224,-13.856406460551016 200,0" fill="#7b88b2" stroke="#44475a" stroke-width="1"></polygon></g><g><rect x="4" y="0" width="192" height="40" fill="#44475a" stroke="#282a36" stroke-width="1"></rect><polygon points="196,0 208,-6.928203230275508 208,33.07179676972449 196,40" fill="#333544" stroke="#282a36" stroke-width="1"></polygon><polygon points="4,0 16,-6.928203230275508 208,-6.928203230275508 196,0" fill="#4e5268" stroke="#282a36" stroke-width="1"></polygon></g><g><rect x="4" y="40" width="192" height="80" fill="#ffb86c" stroke="#282a36" stroke-width="1"></rect><polygon points="196,40 220,26.143593539448986 220,106.14359353944899 196,120" fill="#ff8c11" stroke="#282a36" stroke-width="1"></polygon><polygon points="4,40 28,26.143593539448986 220,26.143593539448986 196,40" fill="#ffd2a2" stroke="#282a36" stroke-width="1"></polygon></g><g><rect x="4" y="120" width="192" height="40" fill="#bd93f9" stroke="#282a36" stroke-width="1"></rect><polygon points="196,120 220,106.14359353944899 220,146.14359353944897 196,160" fill="#8435f4" stroke="#282a36" stroke-width="1"></polygon><polygon points="4,120 28,106.14359353944899 220,106.14359353944899 196,120" fill="#dfcbfc" stroke="#282a36" stroke-width="1"></polygon></g><g><rect x="4" y="160" width="192" height="20" fill="#ff79c6" stroke="#282a36" stroke-width="1"></rect><polygon points="196,160 208,153.0717967697245 208,173.0717967697245 196,180" fill="#ff1b9e" stroke="#282a36" stroke-width="1"></polygon><polygon points="4,160 16,153.0717967697245 208,153.0717967697245 196,160" fill="#ffb1de" stroke="#282a36" stroke-width="1"></polygon></g><g><rect x="4" y="180" width="192" height="20" fill="#8be9fd" stroke="#282a36" stroke-width="1"></rect><polygon points="196,180 208,173.0717967697245 208,193.0717967697245 196,200" fill="#2bd7fb" stroke="#282a36" stroke-width="1"></polygon><polygon points="4,180 16,173.0717967697245 208,173.0717967697245 196,180" fill="#c5f4fe" stroke="#282a36" stroke-width="1"></polygon></g><g><rect x="4" y="200" width="192" height="40" fill="#50fa7b" stroke="#282a36" stroke-width="1"></rect><polygon points="196,200 220,186.14359353944897 220,226.14359353944897 196,240" fill="#07f142" stroke="#282a36" stroke-width="1"></polygon><polygon points="4,200 28,186.14359353944897 220,186.14359353944897 196,200" fill="#80fb9f" stroke="#282a36" stroke-width="1"></polygon></g></g><text x="137" y="304" fill="#6272a4" font-family="Inter, system-ui, sans-serif" font-size="12" text-anchor="middle">FRONT</text><g><text x="10" y="354" fill="#f8f8f2" font-family="Inter, system-ui, sans-serif" font-size="14" font-weight="bold">LEGEND</text><rect x="10" y="367" width="16" height="16" fill="#50fa7b" stroke="#44475a" stroke-width="1"></rect><text x="34" y="379" fill="#f8f8f2" font-family="Inter, system-ui, sans-serif" font-size="12">UPS (2U)</text><rect x="10" y="391" width="16" height="16" fill="#8be9fd" stroke="#44475a" stroke-width="1"></rect><text x="18" y="403" fill="#282a36" font-family="Inter, system-ui, sans-serif" font-size="10" font-weight="bold" text-anchor="middle">½</text><text x="34" y="403" fill="#f8f8f2" font-family="Inter, system-ui, sans-serif" font-size="12">Patch Panel (1U)</text><rect x="10" y="415" width="16" height="16" fill="#ff79c6" stroke="#44475a" stroke-width="1"></rect><text x="18" y="427" fill="#282a36" font-family="Inter, system-ui, sans-serif" font-size="10" font-weight="bold" text-anchor="middle">½</text><text x="34" y="427" fill="#f8f8f2" font-family="Inter, system-ui, sans-serif" font-size="12">Network Switch (1U)</text><rect x="10" y="439" width="16" height="16" fill="#bd93f9" stroke="#44475a" stroke-width="1"></rect><text x="34" y="451" fill="#f8f8f2" font-family="Inter, system-ui, sans-serif" font-size="12">Server 1 (2U)</text><rect x="10" y="463" width="16" height="16" fill="#ffb86c" stroke="#44475a" stroke-width="1"></rect><text x="34" y="475" fill="#f8f8f2" font-family="Inter, system-ui, sans-serif" font-size="12">NAS (4U)</text><rect x="10" y="487" width="16" height="16" fill="#44475a" stroke="#44475a" stroke-width="1"></rect><text x="18" y="499" fill="#282a36" font-family="Inter, system-ui, sans-serif" font-size="10" font-weight="bold" text-anchor="middle">½</text><text x="34" y="499" fill="#f8f8f2" font-family="Inter, system-ui, sans-serif" font-size="12">Blank Panel (2U)</text></g></svg>